<?xml version="1.0" standalone="no"?>
<!DOCTYPE svg PUBLIC "-//W3C//DTD SVG 20010904//EN"
 "http://www.w3.org/TR/2001/REC-SVG-20010904/DTD/svg10.dtd">
<svg version="1.0" xmlns="http://www.w3.org/2000/svg"
 width="416.000000pt" height="416.000000pt" viewBox="0 0 416.000000 416.000000"
 preserveAspectRatio="xMidYMid meet">

<g transform="translate(0.000000,416.000000) scale(0.100000,-0.100000)"
fill="#000000" stroke="none">
<path d="M868 3000 c-33 -25 -36 -58 -9 -91 18 -22 29 -24 135 -29 63 -3 120
-10 126 -16 6 -6 76 -256 155 -556 79 -300 150 -559 159 -575 19 -39 79 -91
114 -100 15 -5 301 -8 635 -8 l609 0 19 24 c26 31 24 57 -6 86 l-24 25 -598 0
c-329 0 -603 4 -610 8 -7 4 -19 24 -28 45 -30 73 -87 67 638 67 615 0 654 1
693 19 46 21 86 68 103 121 43 137 171 651 171 687 0 73 -44 140 -117 177 -29
14 -110 16 -766 16 -571 0 -737 -3 -750 -12 -27 -22 -31 -61 -7 -91 l21 -27
723 0 723 0 21 -23 c12 -13 22 -30 22 -39 0 -9 -38 -161 -85 -339 -66 -250
-90 -328 -106 -341 -20 -17 -67 -18 -679 -18 -619 0 -659 1 -664 18 -3 9 -55
208 -117 442 -61 234 -120 440 -131 458 -11 18 -41 45 -66 60 -43 24 -58 27
-162 30 -106 4 -117 2 -142 -18z"/>
<path d="M1635 1514 c-135 -70 -154 -247 -35 -333 131 -95 311 1 310 165 -1
38 -31 103 -61 131 -55 51 -155 68 -214 37z m121 -139 c25 -26 26 -52 2 -82
-18 -22 -75 -16 -92 9 -21 29 -20 40 5 72 26 33 53 33 85 1z"/>
<path d="M2535 1516 c-38 -17 -90 -72 -104 -109 -38 -101 25 -228 127 -257 57
-15 84 -12 143 18 45 22 59 36 82 81 29 59 32 86 17 143 -30 106 -165 169
-265 124z m113 -132 c25 -17 31 -71 10 -92 -21 -21 -75 -15 -92 10 -21 30 -20
50 4 76 24 26 47 28 78 6z"/>
</g>
</svg>
